<?xml version="1.0" encoding="UTF-8"?>
<svg id="Layer_1" data-name="Layer 1" xmlns="http://www.w3.org/2000/svg" viewBox="0 0 1062.95 305.04">
  <defs>
    <style>
      .cls-1 {
        fill: #342f30;
      }

      .cls-2 {
        fill: #343132;
      }
    </style>
  </defs>
  <g>
    <path class="cls-2" d="M421.32,283.48c.54.31.96.75,1.27,1.31.31.57.47,1.22.47,1.97s-.17,1.47-.5,2.06c-.33.59-.79,1.04-1.36,1.35-.57.31-1.19.47-1.86.47-.59,0-1.12-.12-1.6-.35-.48-.23-.87-.54-1.17-.93v1.11h-1.61v-13.41h1.61v7.2c.3-.38.71-.68,1.24-.91.52-.23,1.1-.34,1.74-.34s1.24.16,1.77.47ZM420.73,288.55c.46-.47.68-1.07.68-1.78,0-.46-.11-.88-.32-1.25s-.5-.67-.87-.89c-.37-.22-.78-.33-1.23-.33-.59,0-1.1.16-1.55.48-.44.32-.74.74-.87,1.25v1.45c.14.52.43.95.87,1.28.44.33.96.5,1.56.5.7,0,1.28-.24,1.74-.71Z"/>
    <path class="cls-2" d="M432.04,283.3l-4.62,10.61h-1.59l1.64-3.69-3.32-6.92h1.82l2.32,5.1,2.27-5.1h1.49Z"/>
    <path class="cls-2" d="M446.52,290.47l-2.94-4.62c-.09.01-.23.02-.42.02h-1.85v4.6h-1.68v-12.51h3.34c.85,0,1.61.15,2.28.45.67.3,1.19.74,1.57,1.32.38.58.57,1.28.57,2.1,0,.77-.17,1.48-.51,2.13-.34.65-.86,1.14-1.57,1.47l3.15,5.04h-1.96ZM445.08,283.53c.4-.47.6-1.01.6-1.63,0-.37-.08-.73-.25-1.09s-.43-.65-.8-.89c-.36-.24-.82-.35-1.38-.35h-1.94v4.67h1.82c.9,0,1.55-.24,1.95-.71Z"/>
    <path class="cls-2" d="M450.83,280.09c.2-.17.42-.26.67-.26s.48.09.67.26.29.39.29.64-.1.47-.29.64-.41.26-.67.26-.48-.09-.67-.26-.29-.39-.29-.64.1-.47.29-.64ZM452.27,283.3v7.16h-1.61v-7.16h1.61Z"/>
    <path class="cls-2" d="M462.63,283.3v7.21c0,.66-.17,1.25-.5,1.78-.33.53-.81.95-1.43,1.26s-1.34.47-2.17.47c-.73,0-1.35-.12-1.88-.36-.52-.24-1.05-.6-1.58-1.07l.95-1.11c.39.37.78.65,1.18.84s.82.29,1.3.29c.8,0,1.41-.19,1.84-.57s.65-.89.67-1.54l.02-1.35c-.27.45-.65.81-1.17,1.08-.51.27-1.1.41-1.77.41s-1.26-.17-1.82-.5c-.55-.33-.99-.79-1.32-1.37-.33-.58-.49-1.22-.49-1.92s.17-1.38.51-1.96c.34-.58.8-1.04,1.38-1.38.58-.33,1.19-.5,1.85-.5.61,0,1.18.12,1.7.36.52.24.91.55,1.16.93l.12-1h1.47ZM460.14,288.81c.45-.33.74-.77.88-1.31v-1.42c-.16-.52-.47-.94-.92-1.25-.45-.32-.97-.48-1.56-.48-.7,0-1.29.23-1.77.69-.47.46-.71,1.05-.71,1.77,0,.46.11.88.33,1.26.22.38.52.68.9.91.38.22.8.34,1.25.34.61,0,1.14-.17,1.59-.5Z"/>
    <path class="cls-2" d="M472.79,283.3v7.16h-1.61v-1.18c-.25.33-.62.64-1.11.93-.48.28-1.03.42-1.64.42-.68,0-1.29-.15-1.84-.44-.55-.29-.98-.72-1.3-1.29-.32-.57-.48-1.24-.48-2.03s.16-1.47.49-2.05c.33-.58.77-1.03,1.33-1.35s1.18-.48,1.86-.48c.61,0,1.14.13,1.59.4.45.27.81.61,1.09,1.04l.12-1.14h1.49ZM470.37,288.81c.42-.33.69-.78.8-1.34v-1.42c-.14-.51-.43-.92-.87-1.24-.44-.32-.94-.48-1.51-.48-.43,0-.82.1-1.19.31-.36.21-.65.5-.87.87-.21.38-.32.8-.32,1.27s.11.88.33,1.26.51.68.88.91c.37.22.77.34,1.21.34.59,0,1.09-.16,1.51-.49Z"/>
    <path class="cls-2" d="M489.11,290.27c-.62.23-1.29.34-2.02.34-1.28,0-2.41-.28-3.38-.85-.98-.57-1.73-1.33-2.25-2.28-.52-.96-.79-2.01-.79-3.17,0-1.23.27-2.34.8-3.33.53-.99,1.27-1.76,2.21-2.32s2-.84,3.19-.84c.7,0,1.36.09,1.97.28s1.16.43,1.64.73l-.67,1.58c-.96-.65-1.92-.97-2.89-.97-.81,0-1.55.21-2.24.64-.69.43-1.23,1.01-1.64,1.74s-.61,1.54-.61,2.41.19,1.71.56,2.44c.37.73.91,1.29,1.61,1.7.7.41,1.5.61,2.41.61,1.12,0,2.09-.32,2.92-.95l.71,1.5c-.4.27-.91.51-1.53.74Z"/>
    <path class="cls-2" d="M492.96,284.89c.34-.58.81-1.04,1.42-1.38.61-.33,1.29-.5,2.05-.5s1.44.17,2.03.5c.59.33,1.06.79,1.38,1.37.33.58.49,1.22.49,1.94s-.16,1.36-.49,1.95c-.33.58-.79,1.04-1.39,1.38-.6.33-1.29.5-2.06.5s-1.42-.16-2.02-.48c-.6-.32-1.07-.76-1.41-1.34s-.51-1.25-.51-2.01c0-.7.17-1.35.51-1.93ZM494.37,288.08c.2.38.48.68.83.9.35.22.74.33,1.17.33.67,0,1.22-.24,1.66-.71.44-.47.66-1.06.66-1.77s-.22-1.29-.66-1.77-.99-.72-1.66-.72c-.44,0-.83.11-1.18.34-.35.23-.62.53-.82.91-.2.38-.3.8-.3,1.25s.1.87.3,1.25Z"/>
    <path class="cls-2" d="M508.61,283.62c.44.4.66.92.68,1.55v5.29h-1.63v-4.74c-.02-.4-.14-.72-.36-.95-.22-.23-.55-.35-.99-.36-.63,0-1.16.25-1.58.76-.42.51-.62,1.15-.62,1.94v3.36h-1.61v-7.16h1.45l.1,1.38c.25-.52.63-.93,1.14-1.22.51-.29,1.09-.44,1.75-.44s1.22.2,1.66.6Z"/>
    <path class="cls-2" d="M514.39,280.15v3.17h1.96v1.28h-1.96v5.87h-1.63v-5.87h-1.32v-1.28h1.32v-3.17h1.63Z"/>
    <path class="cls-2" d="M523.4,288.63l.74,1.19c-.38.25-.79.45-1.24.6-.44.14-.87.22-1.29.22-.8,0-1.49-.16-2.08-.49-.59-.33-1.05-.78-1.38-1.36-.32-.58-.48-1.23-.48-1.96s.18-1.35.53-1.93c.35-.58.83-1.04,1.45-1.38.61-.34,1.28-.51,2.01-.51.93,0,1.72.27,2.34.82s1.06,1.31,1.29,2.29l-5.68,1.99c.21.36.49.64.84.84.35.2.75.3,1.2.3.6,0,1.18-.21,1.75-.62ZM519.91,284.98c-.43.46-.64,1.05-.64,1.77,0,.17,0,.31.02.4l4.17-1.54c-.17-.39-.42-.71-.74-.95s-.71-.36-1.19-.36c-.66,0-1.2.23-1.63.69Z"/>
    <path class="cls-2" d="M538.14,283.6c.41.39.63.91.65,1.56v5.31h-1.61v-4.72c-.03-.84-.42-1.29-1.14-1.33-.42,0-.79.12-1.12.37-.33.25-.59.57-.77.98-.18.4-.28.84-.29,1.3v3.41h-1.63v-4.72c-.03-.84-.43-1.29-1.18-1.33-.4,0-.77.12-1.1.37s-.59.58-.77.99c-.18.41-.28.84-.28,1.31v3.39h-1.61v-7.16h1.45l.12,1.35c.28-.52.65-.92,1.13-1.21.48-.29,1.02-.43,1.64-.43.58,0,1.06.14,1.45.41.39.27.65.64.76,1.12.3-.47.68-.85,1.14-1.12.46-.27.96-.41,1.49-.41.69,0,1.24.2,1.65.59Z"/>
    <path class="cls-2" d="M547.92,283.49c.54.32.97.78,1.28,1.36.31.58.47,1.25.47,2.02s-.17,1.41-.5,1.98c-.33.57-.8,1.01-1.38,1.32-.59.31-1.25.47-1.97.47-.52,0-1.02-.11-1.49-.34-.47-.22-.85-.53-1.14-.91v4.52h-1.61v-10.73h1.4l.14,1.21c.37-.42.81-.75,1.32-1,.51-.25,1.07-.38,1.67-.38.67,0,1.27.16,1.82.48ZM546.75,289.02c.39-.21.69-.51.93-.88s.35-.79.35-1.25-.11-.9-.32-1.28c-.21-.38-.5-.68-.87-.9s-.78-.33-1.23-.33c-.61,0-1.13.17-1.57.51s-.72.8-.86,1.38v1.19c.09.55.35,1.01.79,1.36.43.35.94.53,1.53.53.45,0,.87-.11,1.25-.32Z"/>
    <path class="cls-2" d="M551.72,284.89c.34-.58.81-1.04,1.42-1.38.61-.33,1.29-.5,2.05-.5s1.44.17,2.03.5c.59.33,1.06.79,1.38,1.37.33.58.49,1.22.49,1.94s-.16,1.36-.49,1.95c-.33.58-.79,1.04-1.39,1.38-.6.33-1.29.5-2.06.5s-1.42-.16-2.02-.48c-.6-.32-1.07-.76-1.41-1.34-.34-.58-.51-1.25-.51-2.01,0-.7.17-1.35.51-1.93ZM553.14,288.08c.2.38.48.68.83.9.35.22.74.33,1.17.33.67,0,1.22-.24,1.66-.71.44-.47.66-1.06.66-1.77s-.22-1.29-.66-1.77c-.44-.48-.99-.72-1.66-.72-.44,0-.83.11-1.18.34-.35.23-.62.53-.82.91-.2.38-.3.8-.3,1.25s.1.87.3,1.25Z"/>
    <path class="cls-2" d="M563.61,283.96c.34-.3.7-.53,1.08-.69.38-.16.72-.25,1-.26l-.07,1.61c-.52-.02-.99.08-1.41.31-.42.23-.75.55-.99.96-.24.41-.35.84-.35,1.31v3.27h-1.61v-7.16h1.44l.12,1.7c.18-.39.45-.74.79-1.04Z"/>
    <path class="cls-2" d="M574.95,283.3v7.16h-1.61v-1.18c-.25.33-.62.64-1.11.93-.48.28-1.03.42-1.64.42-.68,0-1.3-.15-1.84-.44-.55-.29-.98-.72-1.3-1.29-.32-.57-.48-1.24-.48-2.03s.16-1.47.49-2.05c.33-.58.77-1.03,1.33-1.35.56-.32,1.18-.48,1.86-.48.61,0,1.14.13,1.59.4s.81.61,1.09,1.04l.12-1.14h1.49ZM572.54,288.81c.42-.33.69-.78.8-1.34v-1.42c-.14-.51-.43-.92-.87-1.24-.44-.32-.94-.48-1.51-.48-.43,0-.82.1-1.19.31-.36.21-.65.5-.87.87-.21.38-.32.8-.32,1.27s.11.88.33,1.26c.22.38.51.68.88.91.37.22.77.34,1.21.34.59,0,1.09-.16,1.51-.49Z"/>
    <path class="cls-2" d="M580.1,283.96c.34-.3.7-.53,1.08-.69.38-.16.72-.25,1-.26l-.07,1.61c-.52-.02-.99.08-1.41.31-.42.23-.75.55-.99.96-.24.41-.35.84-.35,1.31v3.27h-1.61v-7.16h1.44l.12,1.7c.18-.39.45-.74.79-1.04Z"/>
    <path class="cls-2" d="M591.08,283.3l-4.62,10.61h-1.59l1.64-3.69-3.32-6.92h1.82l2.32,5.1,2.27-5.1h1.49Z"/>
    <path class="cls-2" d="M605.63,283.3v7.16h-1.61v-1.18c-.25.33-.62.64-1.11.93-.48.28-1.03.42-1.64.42-.68,0-1.3-.15-1.84-.44-.55-.29-.98-.72-1.3-1.29-.32-.57-.48-1.24-.48-2.03s.17-1.47.49-2.05c.33-.58.77-1.03,1.33-1.35.56-.32,1.18-.48,1.86-.48.61,0,1.14.13,1.59.4.45.27.81.61,1.09,1.04l.12-1.14h1.49ZM603.21,288.81c.42-.33.69-.78.8-1.34v-1.42c-.14-.51-.43-.92-.87-1.24s-.94-.48-1.51-.48c-.43,0-.82.1-1.18.31-.36.21-.65.5-.87.87-.21.38-.32.8-.32,1.27s.11.88.33,1.26.51.68.88.91c.37.22.77.34,1.21.34.59,0,1.09-.16,1.51-.49Z"/>
    <path class="cls-2" d="M610.78,283.96c.34-.3.7-.53,1.08-.69.38-.16.71-.25,1-.26l-.07,1.61c-.52-.02-.99.08-1.41.31-.42.23-.75.55-.99.96-.24.41-.35.84-.35,1.31v3.27h-1.61v-7.16h1.44l.12,1.7c.18-.39.45-.74.79-1.04Z"/>
    <path class="cls-2" d="M617.26,280.15v3.17h1.96v1.28h-1.96v5.87h-1.63v-5.87h-1.32v-1.28h1.32v-3.17h1.63Z"/>
    <path class="cls-2" d="M627.22,284.74h-1.23v-1.45h1.23v-3.01c0-1.04.24-1.83.71-2.39.47-.55,1.17-.83,2.08-.83.25,0,.52.04.81.11.29.08.54.18.76.32l-.69,1.18c-.17-.18-.42-.28-.73-.28-.44,0-.77.15-1,.45s-.34.78-.34,1.45v2.99h2.29v1.45h-2.29v5.73h-1.61v-5.73Z"/>
    <path class="cls-2" d="M640.1,283.3v7.16h-1.61v-1.18c-.25.33-.62.64-1.11.93-.48.28-1.03.42-1.64.42-.68,0-1.29-.15-1.84-.44-.55-.29-.98-.72-1.3-1.29-.32-.57-.48-1.24-.48-2.03s.17-1.47.49-2.05c.33-.58.77-1.03,1.33-1.35.56-.32,1.18-.48,1.86-.48.61,0,1.14.13,1.59.4.45.27.81.61,1.09,1.04l.12-1.14h1.49ZM637.68,288.81c.42-.33.69-.78.8-1.34v-1.42c-.14-.51-.43-.92-.87-1.24-.44-.32-.94-.48-1.51-.48-.43,0-.82.1-1.19.31-.36.21-.65.5-.87.87-.21.38-.32.8-.32,1.27s.11.88.33,1.26c.22.38.51.68.88.91.37.22.77.34,1.21.34.59,0,1.09-.16,1.51-.49Z"/>
    <path class="cls-2" d="M643.07,280.09c.2-.17.42-.26.67-.26s.48.09.67.26c.19.17.29.39.29.64s-.1.47-.29.64c-.19.17-.41.26-.67.26s-.48-.09-.67-.26-.29-.39-.29-.64.1-.47.29-.64ZM644.51,283.3v7.16h-1.61v-7.16h1.61Z"/>
    <path class="cls-2" d="M649.66,283.96c.34-.3.7-.53,1.08-.69.38-.16.71-.25,1-.26l-.07,1.61c-.52-.02-.99.08-1.41.31-.42.23-.75.55-.99.96-.24.41-.35.84-.35,1.31v3.27h-1.61v-7.16h1.44l.12,1.7c.18-.39.45-.74.79-1.04Z"/>
  </g>
  <g>
    <path class="cls-1" d="M175.58,18.71h41.16l1.31,7.58h-.2c-4.44-1.86-8.96-3.25-13.57-4.18-4.61-.93-9.17-1.39-13.67-1.39h-5.35l1.61-.89v80.09h-11.3V18.71ZM203.28,60.82c-3.6-.56-7.95-.84-13.07-.84h-8.37v-2.01h8.37c5.38,0,9.85-.22,13.42-.67,3.56-.45,6.12-1.08,7.67-1.9h.2v7.59h-.2c-1.75-.89-4.42-1.62-8.02-2.18Z"/>
    <path class="cls-1" d="M219.02,97.24c-2.59-2.53-3.88-5.87-3.88-10.04,0-5.06,2.02-9.18,6.05-12.38,4.04-3.2,9.55-5.24,16.55-6.13,2.42-.3,6.32-.67,11.7-1.12v1.56l-1.01.11c-5.04.52-9.22,1.38-12.51,2.57-3.3,1.19-5.87,2.88-7.72,5.08-1.85,2.19-2.77,5-2.77,8.42,0,3.72.91,6.56,2.72,8.53,1.82,1.97,4.1,2.96,6.86,2.96,2.42,0,4.88-.72,7.37-2.17,2.49-1.45,4.74-3.55,6.76-6.3l1.01,1.12c-2.56,3.64-5.74,6.49-9.53,8.53-3.8,2.04-7.58,3.07-11.35,3.07-4.24,0-7.65-1.26-10.24-3.79ZM249.18,97.35c-1.04-2.23-1.56-4.42-1.56-6.58v-29.45c0-4.02-.37-7.31-1.11-9.87-.74-2.57-2.05-4.61-3.93-6.13-1.88-1.52-4.47-2.29-7.77-2.29-2.76,0-5.35.52-7.77,1.56-2.42,1.04-4.88,2.71-7.37,5.02l-.91-1.23c2.96-3.05,5.99-5.33,9.08-6.86,3.09-1.52,6.76-2.29,11-2.29,6.46,0,11.28,1.73,14.48,5.19,3.19,3.46,4.79,8.76,4.79,15.9v28.56c0,2.23.08,3.89.25,4.96.17,1.08.61,1.93,1.31,2.57.71.63,1.83.95,3.38.95.47,0,1.11-.07,1.92-.22v.67c-1.01.75-2.29,1.41-3.83,2.01-1.55.59-3.23.89-5.04.89-3.57,0-5.87-1.12-6.91-3.35ZM251.96,70.36h2.12l-1.31,7.92h-1.11l.3-7.92Z"/>
    <path class="cls-1" d="M273.85,13.14l10.09-3.57h.4v90.35h-10.49V13.14Z"/>
    <path class="cls-1" d="M298.37,13.14l10.09-3.57h.4v90.35h-10.49V13.14Z"/>
    <path class="cls-1" d="M343.57,22.28l7.37-8.14,7.26,8.14-7.26,8.03-7.37-8.03ZM345.68,42.36l10.09-3.12h.4v60.68h-10.49v-57.56Z"/>
    <path class="cls-1" d="M369.8,42.36l10.09-3.12h.4v60.68h-10.49v-57.56ZM374.34,70.36h2.12l-1.31,7.92h-1.11l.3-7.92ZM404.5,48.44c-1.35-3.38-4.47-5.08-9.38-5.08-1.88,0-3.73.33-5.55,1-1.82.67-3.63,1.73-5.45,3.18s-3.67,3.33-5.55,5.63l-1.01-1.12c2.35-2.83,4.61-5.15,6.76-6.97,2.15-1.82,4.49-3.25,7.01-4.29,2.52-1.04,5.33-1.56,8.42-1.56,5.65,0,9.94,1.75,12.86,5.24,2.93,3.5,4.39,8.78,4.39,15.84v39.6h-10.49v-40.05c0-4.24-.67-8.05-2.02-11.43Z"/>
    <path class="cls-1" d="M458.13,96.57c-1.72-3.12-2.57-6.69-2.57-10.71v-44.28l1.61,1.45h-9.18v-1.9l7.26-.56,10.39-19.3h.4v19.74l-1.61-.45h18.67l-1.31,2.45h-17.35l1.61-1.45v44.51c0,2.9.5,5.49,1.51,7.75,1.01,2.27,3.19,3.4,6.56,3.4,1.28,0,2.64-.22,4.09-.67,1.45-.45,2.94-1.15,4.49-2.12l.81,1.34c-2.42,1.79-4.76,3.14-7.01,4.07-2.25.93-4.76,1.39-7.52,1.39-5.52,0-9.13-1.56-10.85-4.68Z"/>
    <path class="cls-1" d="M498.64,97.52c-4.1-2.49-7.3-6.06-9.58-10.71-2.29-4.65-3.43-10.06-3.43-16.23s1.21-11.64,3.63-16.4c2.42-4.76,5.73-8.44,9.94-11.04,4.2-2.6,8.96-3.9,14.28-3.9s9.8,1.25,13.87,3.74c4.07,2.49,7.26,6.06,9.58,10.71,2.32,4.65,3.48,10.06,3.48,16.23s-1.21,11.64-3.63,16.4c-2.42,4.76-5.74,8.44-9.94,11.04-4.2,2.6-8.96,3.9-14.28,3.9s-9.82-1.25-13.92-3.74ZM521.64,96.13c2.42-2.38,4.29-5.74,5.6-10.09s1.97-9.5,1.97-15.45-.67-11.16-2.02-15.62c-1.35-4.46-3.26-7.94-5.75-10.43-2.49-2.49-5.35-3.74-8.58-3.74s-6.14,1.19-8.53,3.57c-2.39,2.38-4.24,5.75-5.55,10.1-1.31,4.35-1.97,9.5-1.97,15.45s.67,11.17,2.02,15.67c1.34,4.5,3.26,7.98,5.75,10.43,2.49,2.45,5.35,3.68,8.58,3.68s6.05-1.19,8.47-3.57Z"/>
    <path class="cls-1" d="M579.1,96.57c-1.72-3.12-2.57-6.69-2.57-10.71v-44.28l1.61,1.45h-9.18v-1.9l7.26-.56,10.39-19.3h.4v19.74l-1.61-.45h18.67l-1.31,2.45h-17.35l1.61-1.45v44.51c0,2.9.5,5.49,1.51,7.75,1.01,2.27,3.19,3.4,6.56,3.4,1.28,0,2.64-.22,4.09-.67,1.45-.45,2.94-1.15,4.49-2.12l.81,1.34c-2.42,1.79-4.76,3.14-7.01,4.07-2.25.93-4.76,1.39-7.52,1.39-5.52,0-9.13-1.56-10.85-4.68Z"/>
    <path class="cls-1" d="M611.33,13.14l10.09-3.57h.4v90.35h-10.49V13.14ZM615.77,70.36h2.12l-1.31,7.92h-1.11l.3-7.92ZM646.04,48.44c-1.35-3.38-4.47-5.08-9.38-5.08-1.88,0-3.73.33-5.55,1-1.82.67-3.63,1.73-5.45,3.18-1.82,1.45-3.7,3.33-5.65,5.63l-.91-1.12c2.35-2.83,4.61-5.15,6.76-6.97,2.15-1.82,4.49-3.25,7.01-4.29,2.52-1.04,5.3-1.56,8.32-1.56,5.65,0,9.95,1.75,12.91,5.24,2.96,3.5,4.44,8.78,4.44,15.84v39.6h-10.49v-40.05c0-4.24-.67-8.05-2.02-11.43Z"/>
    <path class="cls-1" d="M681.4,97.52c-3.87-2.49-6.9-6-9.08-10.54-2.19-4.54-3.28-9.78-3.28-15.73,0-6.39,1.18-12.01,3.53-16.84,2.35-4.83,5.62-8.57,9.79-11.21,4.17-2.64,8.88-3.96,14.12-3.96,4.84,0,8.93,1.13,12.26,3.4,3.33,2.27,5.82,5.43,7.47,9.48,1.65,4.05,2.4,8.72,2.27,14h-44.39v-1.79h41.06l-6.56.56c.27-4.76-.1-8.96-1.11-12.6-1.01-3.64-2.54-6.45-4.59-8.42-2.05-1.97-4.46-2.96-7.21-2.96-3.03,0-5.72,1.15-8.07,3.46-2.36,2.31-4.19,5.5-5.5,9.59-1.31,4.09-1.97,8.7-1.97,13.83,0,6.1.81,11.27,2.42,15.5,1.61,4.24,3.85,7.44,6.71,9.59,2.86,2.16,6.1,3.23,9.74,3.23,3.23,0,6.44-.89,9.64-2.68,3.19-1.79,5.9-4.39,8.12-7.81l1.21.78c-2.89,4.91-6.34,8.61-10.34,11.1-4,2.49-8.39,3.74-13.17,3.74s-9.2-1.25-13.07-3.74Z"/>
    <path class="cls-1" d="M751.62,97.24c-2.59-2.53-3.88-5.87-3.88-10.04,0-5.06,2.02-9.18,6.05-12.38,4.04-3.2,9.55-5.24,16.55-6.13,2.42-.3,6.32-.67,11.7-1.12v1.56l-1.01.11c-5.04.52-9.22,1.38-12.51,2.57-3.3,1.19-5.87,2.88-7.72,5.08-1.85,2.19-2.77,5-2.77,8.42,0,3.72.91,6.56,2.72,8.53,1.82,1.97,4.1,2.96,6.86,2.96,2.42,0,4.88-.72,7.37-2.17,2.49-1.45,4.74-3.55,6.76-6.3l1.01,1.12c-2.56,3.64-5.74,6.49-9.53,8.53-3.8,2.04-7.58,3.07-11.35,3.07-4.24,0-7.65-1.26-10.24-3.79ZM781.79,97.35c-1.04-2.23-1.56-4.42-1.56-6.58v-29.45c0-4.02-.37-7.31-1.11-9.87-.74-2.57-2.05-4.61-3.94-6.13-1.88-1.52-4.47-2.29-7.77-2.29-2.76,0-5.35.52-7.77,1.56-2.42,1.04-4.88,2.71-7.37,5.02l-.91-1.23c2.96-3.05,5.99-5.33,9.08-6.86,3.09-1.52,6.76-2.29,11-2.29,6.46,0,11.28,1.73,14.48,5.19,3.19,3.46,4.79,8.76,4.79,15.9v28.56c0,2.23.08,3.89.25,4.96.17,1.08.61,1.93,1.31,2.57.71.63,1.83.95,3.38.95.47,0,1.11-.07,1.92-.22v.67c-1.01.75-2.29,1.41-3.83,2.01-1.55.59-3.23.89-5.04.89-3.57,0-5.87-1.12-6.91-3.35ZM784.56,70.36h2.12l-1.31,7.92h-1.11l.3-7.92Z"/>
    <path class="cls-1" d="M806.05,42.36l9.89-3.12h.4v16.73l.2.22v43.73h-10.49v-57.56ZM809.89,70.36h1.82l-1.31,7.92h-.81l.3-7.92ZM819.93,47.49c1.72-2.6,3.67-4.61,5.85-6.02,2.18-1.41,4.52-2.12,7.01-2.12,1.48,0,3.03.22,4.64.67l-3.03,9.04c-1.75-.97-3.6-1.45-5.55-1.45s-3.68.52-5.4,1.56c-1.71,1.04-3.2,2.47-4.44,4.29-1.25,1.82-2.27,3.85-3.08,6.08l-.4-2.79c1.21-3.57,2.67-6.65,4.39-9.26Z"/>
    <path class="cls-1" d="M851.4,96.57c-1.71-3.12-2.57-6.69-2.57-10.71v-44.28l1.61,1.45h-9.18v-1.9l7.26-.56,10.39-19.3h.4v19.74l-1.61-.45h18.67l-1.31,2.45h-17.35l1.61-1.45v44.51c0,2.9.5,5.49,1.51,7.75,1.01,2.27,3.19,3.4,6.56,3.4,1.28,0,2.64-.22,4.09-.67,1.45-.45,2.94-1.15,4.49-2.12l.81,1.34c-2.42,1.79-4.76,3.14-7.01,4.07-2.25.93-4.76,1.39-7.52,1.39-5.52,0-9.13-1.56-10.85-4.68Z"/>
    <path class="cls-1" d="M26.46,220.15c-5.72-3.31-10.22-8.07-13.52-14.28-3.3-6.21-4.94-13.51-4.94-21.92s1.7-16.06,5.09-22.53c3.4-6.47,8.05-11.45,13.97-14.95,5.92-3.49,12.54-5.24,19.88-5.24s13.55,1.66,19.27,4.96c5.72,3.31,10.22,8.07,13.52,14.28,3.29,6.21,4.94,13.52,4.94,21.92s-1.71,16.06-5.15,22.53-8.09,11.45-13.97,14.95c-5.89,3.5-12.53,5.24-19.93,5.24s-13.45-1.65-19.17-4.96ZM60.31,218.42c3.87-3.27,6.83-7.86,8.88-13.78,2.05-5.91,3.08-12.92,3.08-21.03s-1.11-15.12-3.33-21.25-5.3-10.89-9.23-14.28c-3.94-3.38-8.46-5.08-13.57-5.08s-9.8,1.64-13.67,4.91c-3.87,3.27-6.85,7.88-8.93,13.83-2.09,5.95-3.13,12.94-3.13,20.97s1.09,15.21,3.28,21.31c2.19,6.1,5.28,10.84,9.28,14.22,4,3.38,8.59,5.08,13.77,5.08s9.7-1.63,13.57-4.91Z"/>
    <path class="cls-1" d="M90.43,164.43h11.2l16.65,46.07-4.44,8.03,18.67-54.1h.71l-.3,5.13-19.57,56h-.61l-22.3-61.13ZM127.66,180.27l5.55-15.84,15.54,45.73-4.64,8.59,7.47-20.97c2.76-7.81,4.79-14.39,6.1-19.74,1.31-5.35,2.07-9.89,2.27-13.61h6.15c-2.62,6.02-6.29,15.69-11,29l-1.82,5.13-9.58,26.99h-.71l-15.34-45.29Z"/>
    <path class="cls-1" d="M173.76,166.22l10.09-3.12h.4v60.68h-10.49v-57.56ZM178.3,194.21h2.12l-1.31,7.92h-1.11l.3-7.92ZM208.47,172.3c-1.35-3.38-4.47-5.08-9.38-5.08-1.88,0-3.73.33-5.55,1-1.82.67-3.63,1.73-5.45,3.18-1.82,1.45-3.67,3.33-5.55,5.63l-1.01-1.12c2.35-2.83,4.61-5.15,6.76-6.97,2.15-1.82,4.49-3.25,7.01-4.29,2.52-1.04,5.33-1.56,8.42-1.56,5.65,0,9.94,1.75,12.86,5.24,2.93,3.5,4.39,8.78,4.39,15.84v39.6h-10.49v-40.04c0-4.24-.67-8.05-2.02-11.43Z"/>
    <path class="cls-1" d="M262.1,220.43c-1.71-3.12-2.57-6.69-2.57-10.71v-44.28l1.61,1.45h-9.18v-1.9l7.26-.56,10.39-19.3h.4v19.74l-1.61-.45h18.67l-1.31,2.45h-17.35l1.61-1.45v44.51c0,2.9.5,5.49,1.51,7.75,1.01,2.27,3.19,3.4,6.56,3.4,1.28,0,2.64-.22,4.09-.67,1.45-.45,2.94-1.15,4.49-2.12l.81,1.34c-2.42,1.79-4.76,3.14-7.01,4.07-2.25.93-4.76,1.39-7.52,1.39-5.52,0-9.13-1.56-10.85-4.68Z"/>
    <path class="cls-1" d="M294.33,136.99l10.09-3.57h.4v90.35h-10.49v-86.78ZM298.77,194.21h2.12l-1.31,7.92h-1.11l.3-7.92ZM329.04,172.3c-1.35-3.38-4.47-5.08-9.38-5.08-1.88,0-3.73.33-5.55,1-1.82.67-3.63,1.73-5.45,3.18-1.82,1.45-3.7,3.33-5.65,5.63l-.91-1.12c2.35-2.83,4.61-5.15,6.76-6.97,2.15-1.82,4.49-3.25,7.01-4.29,2.52-1.04,5.3-1.56,8.32-1.56,5.65,0,9.95,1.75,12.91,5.24,2.96,3.5,4.44,8.78,4.44,15.84v39.6h-10.49v-40.04c0-4.24-.67-8.05-2.02-11.43Z"/>
    <path class="cls-1" d="M364.4,221.38c-3.87-2.49-6.9-6-9.08-10.54-2.19-4.54-3.28-9.78-3.28-15.73,0-6.4,1.18-12.01,3.53-16.84,2.35-4.83,5.62-8.57,9.79-11.21,4.17-2.64,8.88-3.96,14.12-3.96,4.84,0,8.93,1.13,12.26,3.4,3.33,2.27,5.82,5.43,7.47,9.48,1.65,4.05,2.4,8.72,2.27,14h-44.39v-1.78h41.06l-6.56.56c.27-4.76-.1-8.96-1.11-12.6-1.01-3.64-2.54-6.45-4.59-8.42-2.05-1.97-4.46-2.96-7.21-2.96-3.03,0-5.72,1.15-8.07,3.46-2.35,2.31-4.19,5.5-5.5,9.59-1.31,4.09-1.97,8.7-1.97,13.83,0,6.1.81,11.27,2.42,15.5,1.61,4.24,3.85,7.44,6.71,9.59,2.86,2.16,6.1,3.24,9.74,3.24,3.23,0,6.44-.89,9.63-2.68,3.19-1.78,5.9-4.39,8.12-7.81l1.21.78c-2.89,4.91-6.34,8.61-10.34,11.1-4,2.49-8.39,3.74-13.17,3.74s-9.2-1.25-13.07-3.74Z"/>
    <path class="cls-1" d="M444.41,221.38c-3.87-2.49-6.9-6-9.08-10.54-2.19-4.54-3.28-9.78-3.28-15.73,0-6.4,1.18-12.01,3.53-16.84,2.35-4.83,5.62-8.57,9.79-11.21,4.17-2.64,8.88-3.96,14.12-3.96,4.84,0,8.93,1.13,12.26,3.4,3.33,2.27,5.82,5.43,7.47,9.48,1.65,4.05,2.4,8.72,2.27,14h-44.39v-1.78h41.06l-6.56.56c.27-4.76-.1-8.96-1.11-12.6-1.01-3.64-2.54-6.45-4.59-8.42-2.05-1.97-4.46-2.96-7.21-2.96-3.03,0-5.72,1.15-8.07,3.46-2.35,2.31-4.19,5.5-5.5,9.59-1.31,4.09-1.97,8.7-1.97,13.83,0,6.1.81,11.27,2.42,15.5,1.61,4.24,3.85,7.44,6.71,9.59,2.86,2.16,6.1,3.24,9.74,3.24,3.23,0,6.44-.89,9.64-2.68,3.19-1.78,5.9-4.39,8.12-7.81l1.21.78c-2.89,4.91-6.34,8.61-10.34,11.1-4,2.49-8.39,3.74-13.17,3.74s-9.2-1.25-13.07-3.74Z"/>
    <path class="cls-1" d="M489.25,216.75c1.88-2.53,3.87-5.39,5.95-8.59,1.01-1.49,2.19-3.27,3.53-5.35l7.26-11.38,1.71-.56,4.54-7.25c2.89-4.54,5.1-8.24,6.61-11.1,1.51-2.86,2.54-5.56,3.08-8.09h6.46c-2.22,2.6-4.51,5.52-6.86,8.76-2.35,3.23-4.94,7.05-7.77,11.43l-4.74,7.58-1.92.89-6.86,10.82c-1.88,2.9-3.36,5.52-4.44,7.86-1.08,2.34-1.85,4.44-2.32,6.3-.47,1.86-.74,3.76-.81,5.69h-9.18c1.95-2.16,3.87-4.5,5.75-7.03ZM483.6,164.43h12.31l31.78,45.18v16.84h-.4l-43.69-62.02Z"/>
    <path class="cls-1" d="M543.78,220.43c-1.72-3.12-2.57-6.69-2.57-10.71v-44.28l1.61,1.45h-9.18v-1.9l7.26-.56,10.39-19.3h.4v19.74l-1.61-.45h18.67l-1.31,2.45h-17.35l1.61-1.45v44.51c0,2.9.5,5.49,1.51,7.75,1.01,2.27,3.19,3.4,6.56,3.4,1.28,0,2.64-.22,4.09-.67,1.45-.45,2.94-1.15,4.49-2.12l.81,1.34c-2.42,1.79-4.76,3.14-7.01,4.07-2.25.93-4.76,1.39-7.52,1.39-5.52,0-9.13-1.56-10.85-4.68Z"/>
    <path class="cls-1" d="M575.92,166.22l9.89-3.12h.4v16.73l.2.22v43.73h-10.49v-57.56ZM579.75,194.21h1.82l-1.31,7.92h-.81l.3-7.92ZM589.79,171.35c1.71-2.6,3.67-4.61,5.85-6.02,2.19-1.41,4.52-2.12,7.01-2.12,1.48,0,3.03.22,4.64.67l-3.03,9.04c-1.75-.97-3.6-1.45-5.55-1.45s-3.68.52-5.4,1.56c-1.72,1.04-3.2,2.47-4.44,4.29-1.25,1.82-2.27,3.85-3.08,6.08l-.4-2.79c1.21-3.57,2.67-6.66,4.39-9.26Z"/>
    <path class="cls-1" d="M611.78,221.1c-2.59-2.53-3.88-5.87-3.88-10.04,0-5.06,2.02-9.18,6.05-12.38,4.04-3.2,9.55-5.24,16.55-6.13,2.42-.3,6.32-.67,11.7-1.12v1.56l-1.01.11c-5.04.52-9.22,1.38-12.51,2.57-3.3,1.19-5.87,2.88-7.72,5.08-1.85,2.19-2.77,5-2.77,8.42,0,3.72.91,6.56,2.72,8.53,1.82,1.97,4.1,2.96,6.86,2.96,2.42,0,4.88-.72,7.37-2.17,2.49-1.45,4.74-3.55,6.76-6.3l1.01,1.12c-2.56,3.64-5.74,6.49-9.53,8.53-3.8,2.04-7.58,3.07-11.35,3.07-4.24,0-7.65-1.26-10.24-3.79ZM641.95,221.21c-1.04-2.23-1.56-4.42-1.56-6.58v-29.45c0-4.02-.37-7.31-1.11-9.87-.74-2.57-2.05-4.61-3.93-6.13-1.88-1.52-4.47-2.29-7.77-2.29-2.76,0-5.35.52-7.77,1.56-2.42,1.04-4.88,2.72-7.37,5.02l-.91-1.23c2.96-3.05,5.99-5.33,9.08-6.86,3.09-1.52,6.76-2.29,11-2.29,6.46,0,11.28,1.73,14.48,5.19,3.19,3.46,4.79,8.76,4.79,15.9v28.56c0,2.23.08,3.89.25,4.96.17,1.08.61,1.93,1.31,2.57.71.63,1.83.95,3.38.95.47,0,1.11-.07,1.92-.22v.67c-1.01.74-2.29,1.41-3.83,2.01-1.55.59-3.23.89-5.04.89-3.57,0-5.87-1.12-6.91-3.35ZM644.73,194.21h2.12l-1.31,7.92h-1.11l.3-7.92Z"/>
    <path class="cls-1" d="M675.5,221.38c-4.1-2.49-7.3-6.06-9.58-10.71-2.29-4.65-3.43-10.06-3.43-16.23s1.21-11.64,3.63-16.4c2.42-4.76,5.73-8.44,9.94-11.04,4.2-2.6,8.96-3.9,14.28-3.9s9.8,1.25,13.87,3.74c4.07,2.49,7.26,6.06,9.58,10.71,2.32,4.65,3.48,10.06,3.48,16.23s-1.21,11.64-3.63,16.4c-2.42,4.76-5.74,8.44-9.94,11.04-4.2,2.6-8.96,3.9-14.28,3.9s-9.82-1.25-13.92-3.74ZM698.5,219.98c2.42-2.38,4.29-5.75,5.6-10.1,1.31-4.35,1.97-9.5,1.97-15.45s-.67-11.15-2.02-15.62c-1.35-4.46-3.26-7.94-5.75-10.43-2.49-2.49-5.35-3.74-8.58-3.74s-6.14,1.19-8.53,3.57c-2.39,2.38-4.24,5.74-5.55,10.09s-1.97,9.5-1.97,15.45.67,11.17,2.02,15.67c1.35,4.5,3.26,7.98,5.75,10.43,2.49,2.45,5.35,3.68,8.58,3.68s6.05-1.19,8.48-3.57Z"/>
    <path class="cls-1" d="M727.96,166.22l9.89-3.12h.4v16.73l.2.22v43.73h-10.49v-57.56ZM731.8,194.21h1.82l-1.31,7.92h-.81l.3-7.92ZM741.84,171.35c1.71-2.6,3.67-4.61,5.85-6.02,2.19-1.41,4.52-2.12,7.01-2.12,1.48,0,3.03.22,4.64.67l-3.03,9.04c-1.75-.97-3.6-1.45-5.55-1.45s-3.68.52-5.4,1.56c-1.72,1.04-3.2,2.47-4.44,4.29-1.25,1.82-2.27,3.85-3.08,6.08l-.4-2.79c1.21-3.57,2.67-6.66,4.39-9.26Z"/>
    <path class="cls-1" d="M771.1,221.32c-3.53-2.53-6.29-6.08-8.27-10.65-1.98-4.57-2.98-9.76-2.98-15.56,0-6.17,1.18-11.69,3.53-16.57,2.35-4.87,5.53-8.66,9.53-11.38,4-2.71,8.36-4.07,13.07-4.07,4.17,0,7.9,1.06,11.2,3.18,3.29,2.12,5.99,5.08,8.07,8.87l-4.64,1.12c-1.21-3.5-3.01-6.26-5.4-8.31-2.39-2.04-5.09-3.07-8.12-3.07-3.23,0-6.04,1.19-8.42,3.57-2.39,2.38-4.25,5.73-5.6,10.04-1.35,4.31-2.02,9.48-2.02,15.5s.66,11.06,1.97,15.12c1.31,4.05,3.11,7.08,5.4,9.09,2.29,2.01,4.91,3.01,7.87,3.01,1.95,0,3.87-.39,5.75-1.17,1.88-.78,3.72-1.99,5.5-3.63,1.78-1.63,3.45-3.68,4.99-6.13l1.31,1.12c-1.88,2.9-3.9,5.35-6.05,7.36-2.15,2.01-4.47,3.57-6.96,4.69-2.49,1.12-5.15,1.67-7.97,1.67-4.31,0-8.22-1.27-11.75-3.79ZM800.61,215.07v-78.08l10.09-3.57h.4v80.09l2.22,8.03-9.89,3.35-2.83-9.82ZM804.85,194.21h2.12l-1.31,7.92h-1.11l.3-7.92Z"/>
    <path class="cls-1" d="M824.92,166.22l10.09-3.12h.4v60.68h-10.49v-57.56Z"/>
    <path class="cls-1" d="M849.03,166.22l10.09-3.12h.4v60.68h-10.49v-57.56ZM853.57,194.21h2.12l-1.31,7.92h-1.11l.3-7.92ZM883.74,172.3c-1.35-3.38-4.47-5.08-9.38-5.08-1.88,0-3.73.33-5.55,1-1.82.67-3.63,1.73-5.45,3.18-1.82,1.45-3.67,3.33-5.55,5.63l-1.01-1.12c2.35-2.83,4.61-5.15,6.76-6.97,2.15-1.82,4.49-3.25,7.01-4.29,2.52-1.04,5.33-1.56,8.42-1.56,5.65,0,9.94,1.75,12.86,5.24,2.93,3.5,4.39,8.78,4.39,15.84v39.6h-10.49v-40.04c0-4.24-.67-8.05-2.02-11.43Z"/>
    <path class="cls-1" d="M909.32,221.1c-2.59-2.53-3.88-5.87-3.88-10.04,0-5.06,2.02-9.18,6.05-12.38,4.04-3.2,9.55-5.24,16.55-6.13,2.42-.3,6.32-.67,11.7-1.12v1.56l-1.01.11c-5.04.52-9.22,1.38-12.51,2.57-3.3,1.19-5.87,2.88-7.72,5.08-1.85,2.19-2.77,5-2.77,8.42,0,3.72.91,6.56,2.72,8.53,1.82,1.97,4.1,2.96,6.86,2.96,2.42,0,4.88-.72,7.37-2.17s4.74-3.55,6.76-6.3l1.01,1.12c-2.56,3.64-5.74,6.49-9.54,8.53-3.8,2.04-7.58,3.07-11.35,3.07-4.24,0-7.65-1.26-10.24-3.79ZM939.48,221.21c-1.04-2.23-1.56-4.42-1.56-6.58v-29.45c0-4.02-.37-7.31-1.11-9.87s-2.05-4.61-3.93-6.13c-1.88-1.52-4.47-2.29-7.77-2.29-2.76,0-5.35.52-7.77,1.56-2.42,1.04-4.88,2.72-7.37,5.02l-.91-1.23c2.96-3.05,5.99-5.33,9.08-6.86,3.09-1.52,6.76-2.29,11-2.29,6.46,0,11.28,1.73,14.48,5.19,3.19,3.46,4.79,8.76,4.79,15.9v28.56c0,2.23.08,3.89.25,4.96.17,1.08.61,1.93,1.31,2.57.71.63,1.83.95,3.38.95.47,0,1.11-.07,1.92-.22v.67c-1.01.74-2.29,1.41-3.83,2.01-1.55.59-3.23.89-5.04.89-3.57,0-5.87-1.12-6.91-3.35ZM942.26,194.21h2.12l-1.31,7.92h-1.11l.3-7.92Z"/>
    <path class="cls-1" d="M963.75,166.22l9.89-3.12h.4v16.73l.2.22v43.73h-10.49v-57.56ZM967.58,194.21h1.82l-1.31,7.92h-.81l.3-7.92ZM977.62,171.35c1.71-2.6,3.67-4.61,5.85-6.02,2.19-1.41,4.52-2.12,7.01-2.12,1.48,0,3.03.22,4.64.67l-3.03,9.04c-1.75-.97-3.6-1.45-5.55-1.45s-3.68.52-5.4,1.56c-1.72,1.04-3.2,2.47-4.44,4.29-1.25,1.82-2.27,3.85-3.08,6.08l-.4-2.79c1.21-3.57,2.67-6.66,4.39-9.26Z"/>
    <path class="cls-1" d="M1004.1,244.08c2.82,0,5.55-.91,8.17-2.73,2.62-1.82,4.64-4.59,6.05-8.31l4.24-11.49-.61,3.9-24.01-61.02h11.3l18.16,46.07-3.73,8.25,8.27-21.97c2.69-7.29,4.74-13.61,6.15-18.96,1.41-5.35,2.25-9.82,2.52-13.39h6.05c-1.68,3.79-3.3,7.66-4.84,11.6-1.55,3.94-3.4,8.81-5.55,14.61l-2.62,6.92-13.42,35.47c-1.55,4.16-3.43,7.49-5.65,9.98-2.22,2.49-4.68,4.26-7.37,5.3-2.69,1.04-5.65,1.56-8.88,1.56l.61-6.69c1.62.59,3.33.89,5.15.89Z"/>
  </g>
  <circle class="cls-1" cx="350.42" cy="22.1" r="8.02"/>
  <circle class="cls-1" cx="889.77" cy="93.39" r="5.67"/>
  <circle class="cls-1" cx="1051.22" cy="218.35" r="5.67"/>
  <circle class="cls-1" cx="830.17" cy="146.85" r="8.02"/>
</svg>