<?xml version="1.0" encoding="UTF-8"?>
<svg id="Layer_1" xmlns="http://www.w3.org/2000/svg" version="1.1" viewBox="0 0 115.3 185.4">
  <!-- Generator: Adobe Illustrator 29.0.1, SVG Export Plug-In . SVG Version: 2.1.0 Build 192)  -->
  <defs>
    <style>
      .st0 {
        fill: #F4F0EB;
        stroke: #F4F0EB;
        stroke-linecap: round;
        stroke-linejoin: round;
        stroke-width: 14px;
      }
    </style>
  </defs>
  <g id="_5kNMbi">
    <path class="st0" d="M25.6,97.6V16.1c.4-.7,1.8-.7,2.6-.8,10.3-.8,34.4-.9,43.7,2.4,19.2,6.8,21.7,33.4,4.4,43.5-1.3.8-6.2,2.5-6.6,2.8-.5.5-.6,1.1-.4,1.8l18.2,23.6c11.3,5.2,17.2,19.2,12.6,30.9-.2.6-1.6,1.8-2,1.8h-9.4c-1.6,0,.6-6.6.7-7.8,1.4-16.3-14.5-19-26.9-14.7-16.9,5.8-34.5,29.8-32.2,48.1,2.2,18.2,23.3,15.9,34.6,8.4,2.6-1.8,4.4-4.1,7-5.8,1.5-.3,8.4,4.8,8.6,5.5.3,1.1-4.1,5.1-5.1,6-15.9,13.9-50.4,16.5-56.6-8.2-6.8-27.2,19.9-59,45.3-65.6,1.2-.3,5.4-.7,5.6-1.4l-.5-1.4-15.3-19.5h-15l-.7.7v29.6c0,.2-1.1,1.7-1.2,1.7h-11.5,0ZM38.3,54.8h23.7c.8,0,4.6-1.5,5.6-2,9.8-4.8,10-19.9.3-24.6-1.4-.7-5.9-2.1-7.3-2.1h-21.6c-.2,0-1,1.2-1,1.7l.3,27h0Z"/>
  </g>
  <g id="_5kNMbi1" data-name="_5kNMbi">
    <path d="M25.6,97.6V16.1c.4-.7,1.8-.7,2.6-.8,10.3-.8,34.4-.9,43.7,2.4,19.2,6.8,21.7,33.4,4.4,43.5-1.3.8-6.2,2.5-6.6,2.8-.5.5-.6,1.1-.4,1.8l18.2,23.6c11.3,5.2,17.2,19.2,12.6,30.9-.2.6-1.6,1.8-2,1.8h-9.4c-1.6,0,.6-6.6.7-7.8,1.4-16.3-14.5-19-26.9-14.7-16.9,5.8-34.5,29.8-32.2,48.1,2.2,18.2,23.3,15.9,34.6,8.4,2.6-1.8,4.4-4.1,7-5.8,1.5-.3,8.4,4.8,8.6,5.5.3,1.1-4.1,5.1-5.1,6-15.9,13.9-50.4,16.5-56.6-8.2-6.8-27.2,19.9-59,45.3-65.6,1.2-.3,5.4-.7,5.6-1.4l-.5-1.4-15.3-19.5h-15l-.7.7v29.6c0,.2-1.1,1.7-1.2,1.7h-11.5,0ZM38.3,54.8h23.7c.8,0,4.6-1.5,5.6-2,9.8-4.8,10-19.9.3-24.6-1.4-.7-5.9-2.1-7.3-2.1h-21.6c-.2,0-1,1.2-1,1.7l.3,27h0Z"/>
  </g>
</svg>