<?xml version="1.0" encoding="UTF-8"?>
<svg id="Layer_1" data-name="Layer 1" xmlns="http://www.w3.org/2000/svg" viewBox="0 0 115.3 185.4">
  <defs>
    <style>
      .cls-1 {
        fill: #faf4ef;
        stroke: #faf4ef;
        stroke-linecap: round;
        stroke-linejoin: round;
        stroke-width: 5px;
      }
    </style>
  </defs>
  <g>
    <path class="cls-1" d="M71.9,150.3c-2.6,1.7-4.4,4-7,5.8-11.3,7.5-32.4,9.8-34.6-8.4-2.17-17.24,13.33-39.54,29.27-46.91h-18.75c-15.61,13.37-26.68,34.17-22.02,52.81,6.2,24.7,40.7,22.1,56.6,8.2,1-.9,5.4-4.9,5.1-6-.2-.7-7.1-5.8-8.6-5.5Z"/>
    <path class="cls-1" d="M84.02,100.79c3.7,2.58,5.94,6.94,5.38,13.51-.1,1.2-2.3,7.8-.7,7.8h9.4c.4,0,1.8-1.2,2-1.8,2.53-6.42,1.88-13.54-1.08-19.51h-15Z"/>
  </g>
  <path d="M25.6,97.6V16.1c.4-.7,1.8-.7,2.6-.8,10.3-.8,34.4-.9,43.7,2.4,19.2,6.8,21.7,33.4,4.4,43.5-1.3.8-6.2,2.5-6.6,2.8-.5.5-.6,1.1-.4,1.8l18.2,23.6c11.3,5.2,17.2,19.2,12.6,30.9-.2.6-1.6,1.8-2,1.8h-9.4c-1.6,0,.6-6.6.7-7.8,1.4-16.3-14.5-19-26.9-14.7-16.9,5.8-34.5,29.8-32.2,48.1,2.2,18.2,23.3,15.9,34.6,8.4,2.6-1.8,4.4-4.1,7-5.8,1.5-.3,8.4,4.8,8.6,5.5.3,1.1-4.1,5.1-5.1,6-15.9,13.9-50.4,16.5-56.6-8.2-6.8-27.2,19.9-59,45.3-65.6,1.2-.3,5.4-.7,5.6-1.4l-.5-1.4-15.3-19.5h-15l-.7.7v29.6c0,.2-1.1,1.7-1.2,1.7h-11.5l.1-.1ZM38.3,54.8h23.7c.8,0,4.6-1.5,5.6-2,9.8-4.8,10-19.9.3-24.6-1.4-.7-5.9-2.1-7.3-2.1h-21.6c-.2,0-1,1.2-1,1.7l.3,27h0Z"/>
</svg>