<?xml version="1.0" encoding="UTF-8"?>
<svg id="Layer_1" data-name="Layer 1" xmlns="http://www.w3.org/2000/svg" viewBox="0 0 94.54 167.21">
  <g id="_5kNMbi" data-name="5kNMbi">
    <path d="M12.67,87.97l-.04-81.56c.46-.73,1.81-.74,2.6-.8,10.26-.84,34.43-.91,43.69,2.36,19.18,6.78,21.69,33.44,4.42,43.51-1.28.75-6.2,2.49-6.56,2.84-.55.53-.59,1.1-.39,1.8l18.24,23.62c11.28,5.2,17.23,19.19,12.56,30.95-.24.6-1.58,1.76-2,1.76h-9.39c-1.64,0,.6-6.62.7-7.77,1.38-16.27-14.5-18.96-26.88-14.71-16.93,5.82-34.46,29.83-32.21,48.07s23.33,15.87,34.56,8.39c2.63-1.75,4.41-4.05,6.97-5.77,1.54-.33,8.41,4.75,8.61,5.51.28,1.07-4.06,5.12-5.12,6.04-15.9,13.85-50.36,16.5-56.58-8.24-6.85-27.25,19.92-58.98,45.3-65.64,1.15-.3,5.43-.65,5.63-1.42l-.46-1.41-15.27-19.51h-15.02l-.7.71v29.64c0,.18-1.07,1.65-1.17,1.65h-11.5ZM25.35,45.15h23.71c.78,0,4.59-1.48,5.57-1.95,9.77-4.75,9.96-19.9.29-24.63-1.4-.68-5.9-2.13-7.27-2.13h-21.6c-.24,0-1.01,1.25-1.04,1.7l.33,27Z"/>
  </g>
</svg>